<svg xmlns="http://www.w3.org/2000/svg" width="120" height="120" viewBox="0 0 120 120">
  <defs>
    <pattern id="islamic" width="60" height="60" patternUnits="userSpaceOnUse">
      <path d="M30 0 L45 15 L30 30 L15 15 Z M0 30 L15 45 L0 60 L-15 45 Z M60 30 L75 45 L60 60 L45 45 Z M30 60 L45 75 L30 90 L15 75 Z"
            fill="none" stroke="#b9893e" stroke-width="1.2" opacity="0.55"/>
      <circle cx="30" cy="30" r="4" fill="none" stroke="#b9893e" stroke-width="1" opacity="0.45"/>
      <path d="M30 10 A20 20 0 0 1 50 30 A20 20 0 0 1 30 50 A20 20 0 0 1 10 30 A20 20 0 0 1 30 10"
            fill="none" stroke="#b9893e" stroke-width="0.8" opacity="0.35"/>
    </pattern>
  </defs>
  <rect width="120" height="120" fill="url(#islamic)"/>
</svg>
